<svg xmlns="http://www.w3.org/2000/svg" width="150" height="150" viewBox="9.75 0 150 150" enable-background="new 9.75 0 150 150"><path fill="#349946" d="M159.75 75c0 41.423-33.577 75-75 75-41.422 0-75-33.578-75-75 0-41.422 33.579-75 75-75 41.423 0 75 33.578 75 75z"/><path fill="#B1DAAE" d="M47.336 105.402c0 1.115-.273 2.017-1.382 2.043v.018c-.599 .05 .142 .071-.337 .071-3.761 0-6.42-.826-7.975-2.478-1.558-1.652-2.335-4.453-2.335-8.407v-13.467c0-2.133-.313-3.72-.935-4.762-.618-1.032-1.697-1.774-3.233-2.232-.778-.308-1.333-1.06-1.333-1.946 0-.876 .536-1.625 1.297-1.943v-.004c2.803-.741 4.204-2.945 4.204-6.609v-14.369c0-3.567 .801-6.143 2.406-7.724 1.604-1.58 4.24-2.371 7.904-2.371h.337v.002c1.148 .008 1.457 .938 1.457 2.089 0 1.148-.309 1.44-1.457 1.447v.025c-2.755 .048-4.611 .515-5.569 1.401-.958 .887-1.437 2.598-1.437 5.138v14.648c0 1.653-.217 3.173-.647 4.562-.502 1.558-1.785 2.853-3.844 3.88 1.654 .887 2.815 1.964 3.487 3.232 .668 1.271 1.005 3.067 1.005 5.391v14.109c0 2.731 .454 4.544 1.365 5.442 .91 .897 2.79 1.358 5.64 1.384v.028c1.109 .027 1.382 .288 1.382 1.402z"/><path fill="#B1DAAE" d="M123.547 104.001v-.028c2.85-.025 4.729-.486 5.639-1.384 .913-.899 1.366-2.711 1.366-5.442v-14.11c0-2.323 .337-4.119 1.006-5.391 .67-1.269 1.831-2.346 3.484-3.232-2.059-1.028-3.34-2.323-3.845-3.88-.431-1.389-.646-2.909-.646-4.562v-14.648c0-2.54-.479-4.252-1.437-5.138-.958-.886-2.814-1.353-5.568-1.401v-.024c-1.148-.007-2.078-.299-2.078-1.448 0-1.15 .93-2.081 2.078-2.089v-.001h.337c3.664 0 6.299 .791 7.902 2.371 1.604 1.581 2.408 4.157 2.408 7.725v14.368c0 3.664 1.4 5.869 4.203 6.609v.004c.762 .318 1.296 1.066 1.296 1.943 0 .887-.554 1.638-1.331 1.946-1.537 .457-2.615 1.199-3.232 2.231-.623 1.042-.936 2.629-.936 4.762v13.468c0 3.953-.778 6.754-2.334 8.406-1.557 1.652-4.216 2.478-7.977 2.478-.477 0 .265-.021-.336-.07v-.018c-1.109-.027-2.005-.927-2.005-2.042 .002-1.116 .897-1.377 2.006-1.403z"/><path fill="#fff" d="M74.593 67.971c2.18 0 4.041-.761 5.581-2.284 1.542-1.524 2.311-3.354 2.311-5.489 0-2.127-.771-3.947-2.317-5.461-1.545-1.514-3.403-2.271-5.575-2.271-2.171 0-4.025 .755-5.561 2.263-1.536 1.509-2.302 3.333-2.302 5.469 0 2.135 .767 3.965 2.302 5.489 1.536 1.523 3.39 2.284 5.561 2.284zM71.421 57.021c.874-.883 1.931-1.324 3.172-1.324 1.25 0 2.311 .439 3.18 1.316 .869 .878 1.303 1.939 1.303 3.183 0 1.264-.435 2.335-1.303 3.213-.868 .878-1.929 1.316-3.18 1.316-1.242 0-2.298-.438-3.172-1.316s-1.311-1.939-1.311-3.184c0-1.253 .437-2.321 1.311-3.204zM112.609 55.9c2.148 0 3.548 .952 4.044 2.714h-8.021c.635-1.761 2.015-2.714 3.977-2.714zM118.037 83.451c-1.417-1.479-3.16-2.22-5.23-2.22-1.476 0-2.772 .397-3.893 1.192-.28 .21-.515 .397-.706 .561v-5.275c0-.949-.768-1.717-1.719-1.717-.945 0-1.715 .768-1.715 1.717v17.424h.001c.003 .886 .723 1.604 1.608 1.604 .887 0 1.605-.718 1.608-1.604h.017v-.465c.708 .765 1.502 1.308 2.383 1.622 .807 .297 1.628 .446 2.476 .446 2.057 0 3.789-.752 5.191-2.256 1.405-1.503 2.106-3.354 2.106-5.548 .002-2.172-.707-4-2.127-5.481zM115.33 92.044c-.812 .829-1.819 1.244-3.027 1.244-1.194 0-2.204-.404-3.018-1.206-.812-.807-1.222-1.806-1.222-3.006 0-1.302 .395-2.361 1.18-3.182 .786-.818 1.806-1.229 3.06-1.229 1.2 0 2.204 .413 3.02 1.234 .813 .825 1.22 1.846 1.22 3.062-.001 1.228-.404 2.255-1.213 3.083zM98.438 83v12.134h-.003c-.004 .886-.736 1.603-1.642 1.603-.906 0-1.641-.72-1.641-1.609l.017-.166v-.667c-.305 .393-.542 .685-.72 .877-.957 1.044-2.329 1.565-4.119 1.565-1.182 0-2.254-.251-3.217-.755-.961-.503-1.669-1.176-2.119-2.018-.397-.748-.643-1.663-.732-2.746-.03-.374-.043-1.33-.043-2.875v-5.339l-.001-.005c0-.948 .786-1.717 1.753-1.717 .969 0 1.752 .769 1.752 1.717l-.03 .282v5.062c0 1.008 .01 1.615 .03 1.827 0 .699 .131 1.326 .396 1.881 .447 .969 1.387 1.453 2.813 1.453 2.668 0 4.003-1.72 4.003-5.161v-5.344c0-.948 .785-1.717 1.75-1.717 .967 0 1.753 .769 1.753 1.718zM99.419 47.415c-.928 0-1.681 .763-1.682 1.704v5.1c-.815-.699-1.618-1.178-2.413-1.437-.662-.21-1.372-.316-2.129-.316-2.062 0-3.79 .738-5.183 2.213-1.391 1.475-2.088 3.305-2.088 5.489 0 2.194 .695 4.044 2.08 5.547 1.388 1.504 3.088 2.255 5.104 2.255 1.676 0 3.064-.468 4.16-1.408 .257-.22 .47-.44 .641-.66v.342h.016v.002c0 .888 .711 1.609 1.589 1.609s1.59-.721 1.59-1.609v-17.127c0-.941-.756-1.704-1.685-1.704zM96.659 63.293c-.795 .819-1.795 1.231-2.995 1.231-1.164 0-2.151-.413-2.953-1.238-.806-.823-1.208-1.833-1.208-3.032 0-1.236 .399-2.271 1.2-3.104 .799-.833 1.787-1.25 2.961-1.25 1.239 0 2.247 .402 3.022 1.207 .777 .805 1.165 1.845 1.165 3.118 0 1.227-.397 2.25-1.192 3.068zM79.938 94.646c0 .865-.702 1.568-1.566 1.568h-8.662c-.864 0-1.566-.703-1.566-1.568 0-.864 .702-1.565 1.566-1.565h2.652v-13.33h-2.652v-.015c-.864 0-1.566-.7-1.566-1.564 0-.865 .702-1.566 1.566-1.566h4.493c.866 0 1.567 .701 1.567 1.566l-.007 .067 .004 .006v14.834h2.605c.865 .001 1.566 .702 1.566 1.567zM53.964 85.806c-.835 .868-1.252 2.009-1.252 3.151 0 1.14 .417 2.283 1.252 3.151 1.67 1.737 4.388 1.737 6.058 0 .626-.651 2.047-.651 2.72 0 .673 .648 .673 1.701 0 2.354-1.572 1.516-3.636 2.274-5.7 2.274-2.065 0-4.128-.759-5.7-2.274-3.143-3.037-3.143-7.977 0-11.012 3.144-3.033 8.257-3.033 11.4 0 .673 .65 .673 1.704 0 2.355-.672 .648-2.094 .648-2.72 0-1.67-1.737-4.388-1.737-6.058 .001zM53.915 57.039c-.827 .869-1.241 2.01-1.241 3.152 0 1.14 .415 2.283 1.241 3.152 1.653 1.738 4.343 1.736 5.998 0 .617-.65 2.026-.649 2.692 0 .666 .649 .666 1.702 0 2.353-1.557 1.518-3.601 2.275-5.644 2.275-2.044 0-4.087-.757-5.643-2.275-3.111-3.036-3.111-7.975 0-11.009 3.111-3.035 8.174-3.035 11.287 0 .666 .648 .666 1.703 0 2.352-.666 .65-2.075 .65-2.692 0-1.655-1.739-4.346-1.739-5.998 0zM119.218 65.833c.69-.673 .69-1.765 0-2.44-.689-.674-1.956-.674-2.6 0l.004-.003c-.823 .729-1.967 1.106-2.972 1.132l-.549 .001c-1.188 0-2.185-.274-2.997-.819-.808-.546-1.31-1.326-1.5-2.255h9.716c1.087 0 1.966-.902 1.966-2.014l-.015-.142 .015-.036c-.219-1.774-.914-3.243-2.085-4.491-1.438-1.532-3.251-2.3-5.436-2.3-2.138 0-3.95 .759-5.483 2.278-1.533 1.518-2.301 3.365-2.301 5.539 0 2.223 .741 4.06 2.223 5.512 1.479 1.451 3.359 2.176 5.641 2.176l.021-.001 .733 .001c2.04 0 4.08-.729 5.669-2.188l-.05 .05z"/></svg>